<svg width="700" height="380" viewBox="0 0 700 380" xmlns="http://www.w3.org/2000/svg">
  <!-- maze background - faint broken lines -->
  <g stroke="#b0b0b0" stroke-width="0.35" opacity="0.18" fill="none">
    <!-- vertical lines -->
    <path d="M40,20 L40,110 M40,140 L40,200 M40,230 L40,365"/>
    <path d="M90,20 L90,70 M90,100 L90,365"/>
    <path d="M140,60 L140,365"/>
    <path d="M190,20 L190,150 M190,180 L190,240"/>
    <path d="M240,90 L240,160 M240,190 L240,365"/>
    <path d="M290,20 L290,115 M290,145 L290,220 M290,250 L290,365"/>
    <path d="M340,60 L340,365"/>
    <path d="M390,20 L390,175 M390,205 L390,365"/>
    <path d="M440,80 L440,140 M440,170 L440,365"/>
    <path d="M490,20 L490,105 M490,135 L490,205 M490,235 L490,365"/>
    <path d="M540,60 L540,365"/>
    <path d="M590,20 L590,150 M590,180 L590,365"/>
    <path d="M640,20 L640,95 M640,125 L640,195 M640,225 L640,365"/>

    <!-- horizontal lines -->
    <path d="M40,20 L190,20 M240,20 L340,20 M390,20 L640,20"/>
    <path d="M90,50 L140,50 M190,50 L240,50 M290,50 M340,50 L440,50 M490,50 L540,50 M590,50 L640,50"/>
    <path d="M40,80 L90,80 M140,80 L240,80 M290,80 M340,80 L440,80 M490,80 L540,80 M590,80 L640,80"/>
    <path d="M90,110 L190,110 M240,110 M290,110 M340,110 L440,110 M490,110 M540,110 L590,110"/>
    <path d="M40,130 L140,130 M190,130 M240,130 L340,130 M390,130 L440,130 M490,130 L540,130 M590,130 L640,130"/>
    <path d="M90,160 L190,160 M240,160 M290,160 M340,160 L390,160 M440,160 L490,160 M540,160 L590,160 M640,160"/>
    <path d="M40,190 L90,190 M140,190 L240,190 M290,190 M340,190 L440,190 M490,190 M540,190 L640,190"/>
    <path d="M90,220 L190,220 M240,220 M290,220 L390,220 M440,220 L490,220 M540,220 L590,220"/>
    <path d="M40,250 L140,250 M190,250 M240,250 L340,250 M390,250 L490,250 M540,250 L640,250"/>
    <path d="M90,280 L190,280 M240,280 M290,280 L390,280 M440,280 L540,280 M590,280 L640,280"/>
    <path d="M40,310 L140,310 M190,310 M240,310 L340,310 M390,310 L440,310 M490,310 L540,310 M590,310 L640,310"/>
    <path d="M90,340 L190,340 M240,340 M290,340 L440,340 M490,340 M540,340 L640,340"/>
    <path d="M40,365 L190,365 M240,365 M290,365 L390,365 M440,365 L540,365 M590,365 L640,365"/>

    <!-- extra broken segments for maze feel -->
    <path d="M190,38 L240,38 M340,38 L390,38 M490,38 L540,38"/>
    <path d="M90,72 M240,72 L290,72 M440,72 M540,72 L590,72"/>
    <path d="M140,102 L190,102 M390,102 L440,102 M590,102"/>
    <path d="M40,148 M290,148 L340,148 M540,148"/>
    <path d="M140,178 M440,178 L490,178"/>
    <path d="M90,208 M390,208 M590,208 L640,208"/>
    <path d="M140,238 M390,238 L440,238 M590,238"/>
    <path d="M40,268 M340,268 M540,268 L590,268"/>
    <path d="M140,298 M390,298 M590,298 L640,298"/>
    <path d="M40,328 M340,328 L390,328 M540,328"/>
    <path d="M240,352 M440,352 M640,352"/>
  </g>

  <!-- top line -->
  <line x1="120" y1="40" x2="580" y2="40" stroke="#ccc" stroke-width="0.4"/>

  <!-- top-right corner accent -->
  <line x1="680" y1="20" x2="700" y2="20" stroke="#ddd" stroke-width="0.5"/>
  <line x1="700" y1="20" x2="700" y2="44" stroke="#ddd" stroke-width="0.5"/>

  <!-- bottom-right corner accent -->
  <line x1="660" y1="354" x2="700" y2="354" stroke="#ddd" stroke-width="0.5"/>
  <line x1="700" y1="330" x2="700" y2="354" stroke="#ddd" stroke-width="0.5"/>

  <!-- title centered -->
  <text x="350" y="90" text-anchor="middle" font-family="Noto Serif SC,STSong,SimSun,PingFang SC,serif" font-size="21" fill="#222" font-weight="bold" letter-spacing="12">世界是一座巨大的迷宫</text>
  <text x="350" y="128" text-anchor="middle" font-family="Noto Serif SC,STSong,SimSun,PingFang SC,serif" font-size="21" fill="#222" font-weight="bold" letter-spacing="12">代码是唯一的罗盘</text>

  <!-- center divider -->
  <line x1="290" y1="154" x2="410" y2="154" stroke="#bbb" stroke-width="0.5"/>

  <!-- body centered -->
  <text x="350" y="196" text-anchor="middle" font-family="PingFang SC,Hiragino Sans GB,Microsoft YaHei,sans-serif" font-size="16" fill="#999" letter-spacing="10">在混沌中寻找秩序</text>
  <text x="350" y="228" text-anchor="middle" font-family="PingFang SC,Hiragino Sans GB,Microsoft YaHei,sans-serif" font-size="16" fill="#999" letter-spacing="10">在黑暗中点燃微光</text>
  <text x="350" y="260" text-anchor="middle" font-family="PingFang SC,Hiragino Sans GB,Microsoft YaHei,sans-serif" font-size="16" fill="#999" letter-spacing="10">每一行代码都是对虚无的抵抗</text>

  <!-- bottom line -->
  <line x1="120" y1="290" x2="580" y2="290" stroke="#ccc" stroke-width="0.4"/>
</svg>
